<svg width="31447" height="32769" viewBox="0 0 31447 32769" fill="none" xmlns="http://www.w3.org/2000/svg">
<path d="M27691 32768C29707.8 32768 31342.8 31824.1 31342.8 30659.8C31342.8 29495.4 29707.8 28551.5 27691 28551.5C25674.2 28551.5 24039.2 29495.4 24039.2 30659.8C24039.2 31824.1 25674.2 32768 27691 32768Z" fill="#EBEBEB"/>
<path d="M4354.29 19438.5C6272.26 19438.5 7827.08 18540.9 7827.08 17433.6C7827.08 16326.4 6272.26 15428.7 4354.29 15428.7C2436.31 15428.7 881.49 16326.4 881.49 17433.6C881.49 18540.9 2436.31 19438.5 4354.29 19438.5Z" fill="#EBEBEB"/>
<path d="M9834.22 22629.7C11752.2 22629.7 13307 21732.1 13307 20624.8C13307 19517.6 11752.2 18619.9 9834.22 18619.9C7916.25 18619.9 6361.42 19517.6 6361.42 20624.8C6361.42 21732.1 7916.25 22629.7 9834.22 22629.7Z" fill="#EBEBEB"/>
<path d="M15383.8 25873.3C17301.8 25873.3 18856.6 24975.7 18856.6 23868.4C18856.6 22761.2 17301.8 21863.6 15383.8 21863.6C13465.8 21863.6 11911 22761.2 11911 23868.4C11911 24975.7 13465.8 25873.3 15383.8 25873.3Z" fill="#EBEBEB"/>
<path d="M21026.3 29083.3C22944.2 29083.3 24499 28185.6 24499 27078.4C24499 25971.1 22944.2 25073.5 21026.3 25073.5C19108.3 25073.5 17553.5 25971.1 17553.5 27078.4C17553.5 28185.6 19108.3 29083.3 21026.3 29083.3Z" fill="#EBEBEB"/>
<path d="M24609.1 1719.55L25277.9 2105.99C25277.9 2076.04 25272.7 2046.08 25272.7 2017.62V1825.15C25272.7 1479.89 25514.6 1339.84 25813.4 1512.09C25942.4 1591.87 26052.5 1698.68 26136.2 1825.15C26184.9 1390.77 26525.7 1226 26939.1 1467.91C27388.4 1726.29 27748.7 2353.89 27748.7 2869.9V3160.49C27751.4 3276.27 27728.2 3391.2 27680.5 3496.76L28236.2 3817.3C28323.4 3874.41 28395.9 3951.2 28447.9 4041.49C28500 4131.77 28530.1 4233.01 28535.8 4337.06C28535.8 4528.79 28401 4606.68 28236.2 4510.81L24609.1 2413.81C24521.7 2356.96 24449 2280.23 24396.9 2189.9C24344.9 2099.56 24314.9 1998.18 24309.6 1894.05C24308.8 1701.57 24442.1 1623.68 24609.1 1719.55Z" fill="#EBEBEB"/>
<path d="M21746 3669.76L22250.7 3961.85C22250.7 3938.63 22247 3916.91 22247 3894.44V3748.4C22247 3487.77 22429.7 3382.17 22655.2 3512.49C22752.4 3572.03 22835.4 3652.02 22898.6 3746.9C22935.3 3418.87 23192.2 3297.54 23504.5 3477.29C23842.2 3672.01 24115.6 4146.08 24115.6 4535.53V4754.22C24117.8 4841.67 24100.1 4928.48 24063.9 5008.1L24483.3 5250.76C24548.8 5293.86 24603.3 5351.77 24642.4 5419.81C24681.4 5487.85 24703.9 5564.12 24708 5642.45C24708 5786.99 24606.1 5846.16 24483.3 5773.51L21746 4193.27C21680.4 4150 21625.9 4091.95 21586.9 4023.79C21547.9 3955.63 21525.4 3879.26 21521.3 3800.83C21521.3 3656.28 21619.4 3597.87 21746 3669.76Z" fill="#EBEBEB"/>
<path d="M29014.4 29656.9C29195.6 29442.7 29683.9 29248.8 30295 29207.6C30906.2 29166.4 31525.5 29092.2 31438.6 28728.3C31345 28335.8 30796.8 28238.5 30225.4 28381.5C29601.5 28537.3 29079.5 29072.8 29017.3 29447.2L29014.4 29656.9Z" fill="#37474F"/>
<path d="M29022.6 29526.6C29030.6 29527.7 29038.8 29526.6 29046.2 29523.3C29053.7 29519.9 29060 29514.6 29064.5 29507.9C29653.2 28636.9 30726.4 28636.9 31050.7 28734.3C31056.1 28736 31061.8 28736.6 31067.5 28736.1C31073.1 28735.6 31078.6 28734 31083.6 28731.4C31088.7 28728.7 31093.1 28725.1 31096.7 28720.7C31100.3 28716.3 31103 28711.2 31104.6 28705.8C31107.9 28694.9 31106.8 28683.1 31101.4 28673C31096.1 28662.9 31087 28655.3 31076.2 28651.9C30733.1 28547.8 29609.8 28546.3 28992.6 29460.7C28986.5 29470.3 28984.4 29481.9 28986.6 29493.1C28988.8 29504.2 28995.3 29514.1 29004.6 29520.6C29010.2 29523.8 29016.3 29525.8 29022.6 29526.6Z" fill="white"/>
<path d="M29014.4 29656.9C29014.4 29656.9 29460 28575.5 30265.1 28075.9C30504 27926.2 30763.9 27735.9 30945.1 27604.1C31333.8 27321 31244.7 26939.1 30770.6 26876.9C30066.6 26785.5 29467.5 27303 29133.4 28044.5C28799.4 28785.9 29014.4 29656.9 29014.4 29656.9Z" fill="#455A64"/>
<path d="M29021.1 29142.4C29031.5 29144 29042.1 29141.7 29050.8 29135.9C29059.5 29130.1 29065.8 29121.2 29068.3 29111C29385.1 27786.1 30508.5 27258.9 30797.6 27227.4C30803.1 27226.8 30808.4 27225.2 30813.3 27222.6C30818.2 27219.9 30822.5 27216.3 30826 27212C30829.5 27207.7 30832.1 27202.7 30833.6 27197.4C30835.2 27192.1 30835.6 27186.5 30835 27181C30833.7 27170 30828.1 27159.9 30819.4 27153C30810.7 27146.2 30799.6 27143 30788.6 27144.3C30438.1 27181.7 29312.4 27734.4 28986.6 29091.5C28985.3 29096.9 28985 29102.4 28985.8 29107.9C28986.7 29113.4 28988.6 29118.6 28991.4 29123.3C28994.3 29128.1 28998 29132.2 29002.5 29135.5C29006.9 29138.7 29012 29141.1 29017.3 29142.4H29021.1Z" fill="white"/>
<path d="M29245 16728.9C29603.8 16644.3 29836.7 16946.8 30068.8 17510.8C30301 18074.7 30712.2 19448.3 30808 19825C30851.5 19993.5 29782.8 21504.1 29828.4 21481.6C29842.7 21474.9 29411.3 20753.6 29411.3 20753.6L29935.5 19750.1L29561.1 18837.9L29245 16728.9Z" fill="#FFA8A7"/>
<path d="M29755 29460.7C29803.7 29479.4 29815.7 29571.6 29823.2 29755.8C29828.4 29895.8 29858.4 30139.2 29695.1 30187.9C29531.9 30236.6 29293 30211.1 29188.1 30080.1C29057 29916.1 28968.7 29771.5 28782.9 29571.6C28621.2 29397.8 28445.9 29235.3 28380.8 28991.9C28321.6 28771.7 28371 28676.6 28520.8 28612.2C28727.5 28524.6 29051.8 28812.1 29213.6 28857.1C29352.9 28892.3 29706.4 29438.2 29755 29460.7Z" fill="#263238"/>
<path d="M29755 29161.1V29514.6C29670.2 29569.2 29572 29599.4 29471.1 29602.2C29370.3 29605 29270.6 29580.1 29182.9 29530.4C29173.1 29508.6 29144.7 29161.1 29144.7 29161.1H29755Z" fill="#FFA8A7"/>
<path d="M28071.4 30659C28071.4 30659 28135.9 30855.2 28171.1 31027.5C28198.8 31164.5 28238.5 31393 28190.5 31495.6C28142.6 31598.2 27956.1 31664.8 27666.3 31662.6C27479 31662.6 27186.2 31789.1 26986.2 31900.7C26786.3 32012.3 26554.9 32016.8 26336.2 31990.6C26078.5 31960.7 25811.9 31810.9 25770 31704.5C25728 31598.2 25782 31546.5 26389.3 31287.4C26394.6 31287.4 27029.7 30998.3 27323.3 30674L28071.4 30659Z" fill="#263238"/>
<path d="M28071.4 30414.9C28071.4 30414.9 28071.4 30582.6 28071.4 30678.5C28071.4 30774.3 27958.4 30917.4 27665.5 30906.9C27459.6 30899.4 27315 30844 27323.3 30674.7V30429.8L28071.4 30414.9Z" fill="#FFA8A7"/>
<path d="M30134 26546.6C30115.3 25797.7 29961.8 25472.7 29961.8 25472.7C29961.8 25472.7 30018.7 24550.7 30143 23422.8C30331.7 21704 30244.8 21371.5 29905.6 20597.9C29905.6 20597.9 27013.2 20305 26925.6 21507.1C26815.5 23004.9 26802 25658.4 26842.5 26187.1C26882.9 26715.9 26881.4 26617.8 27009.5 27685C27111.3 28531.3 27321 30426.8 27321 30426.8C27437.5 30486 27566.7 30515.7 27697.4 30513C27828 30510.4 27955.9 30475.7 28070 30411.9C28070 30411.9 28305.9 28004.8 28281.2 27395.2C28251.2 26650 28206.3 26460.5 28206.3 26460.5C28206.3 26460.5 28544.8 24259.4 28597.2 23870.7C28597.2 23870.7 28644.4 24565.7 28684.1 25094.4C28723.8 25623.2 28720 25838.9 28833.9 26932.3C28921.5 27789.9 29133.4 29254 29133.4 29254C29235.2 29295.4 29345 29312.7 29454.5 29304.6C29564 29296.6 29670.2 29263.4 29764.8 29207.6C29764.8 29207.6 30152 27150.3 30134 26546.6Z" fill="#00A0E6"/>
<path d="M27763.6 16339.4L27899.2 17456.8L28881.8 17368.5L28769.4 16127.5L27763.6 16339.4Z" fill="#FFA8A7"/>
<path d="M29840.4 17268.9C29732.6 16975.3 29484.7 16669.7 29107.2 16737.1C29008.4 16755.8 28922.2 16770.1 28829.4 16788.8C28821.1 17045.7 28335.8 17179 27852 17023.2C27706.7 17065.1 27573.4 17107.1 27452.8 17150.5C27106.8 17274.1 26968.3 17848.5 26960 18809.4C26951.8 19770.3 26850.7 22167.6 26850.7 22167.6L27255.1 22294.9L27443.8 21593.2L27518.7 22433.5C27978.2 22540.6 28456.4 22538.3 28914.7 22426.8C29954.3 22202.1 30277.1 21638.9 30277.1 21638.9C30105.7 20960.8 29826.8 20314.5 29451 19724.6C29972.2 18341.3 30000.7 17702.5 29840.4 17268.9Z" fill="#37474F"/>
<path d="M27033.4 14919.5C26974.6 14786 26950.6 14639.8 26963.7 14494.5C26976.7 14349.2 27026.5 14209.7 27108.3 14088.9C27437.9 13571.4 28073.7 13483 28830.9 13684.5C29093.8 13765.2 29325.5 13925.1 29494.3 14142.4C29663 14359.7 29760.6 14623.7 29773.8 14898.5C29809.7 15451.2 28268.4 15858.6 28303.6 16236.8L27033.4 14919.5Z" fill="#263238"/>
<path d="M27000.5 15129.9C27000.5 15129.9 26790.8 15464.7 26820.7 15499.1C26872.6 15531.2 26929.6 15554 26989.2 15566.5L27000.5 15129.9Z" fill="#F28F8F"/>
<path d="M27637.8 14067.2C27428.9 14182.5 27068.6 14395.2 26995.2 15177.8C26920.3 15981.4 27106.1 16255.6 27219.9 16357.4C27294.8 16426.3 27676.8 16442 27873 16374.6C28119.4 16290.8 28650.4 16010.7 28891.5 15590.5C29174.6 15095.5 29218.8 14445.4 28869.1 14200.5C28376.3 13856 27812.3 13969.8 27637.8 14067.2Z" fill="#FFA8A7"/>
<path d="M27637.1 14162.3C27515 14456.4 27439.2 14767.7 27412.4 15085C27316.1 15086 27220.4 15070.5 27129.3 15039.3C27129.3 15039.3 27125.5 14702.3 27216.2 14510.5C27129.2 14665 27073.2 14834.9 27051.4 15010.8C26954.4 15002.9 26861.6 14968.2 26783.3 14910.5C26708.4 14550.2 26933.1 13807.3 27573.4 13689L27637.1 14162.3Z" fill="#263238"/>
<path d="M27576.4 14102.4C27576.4 14102.4 27411.6 14838.6 27645.3 15294.7C27645.3 15294.7 27766.6 15005.6 28014.5 15081.2C28262.4 15156.9 28249.7 15486.4 28060.2 15660.2C28011.8 15709.6 27950.4 15744.4 27883.1 15760.5C27815.8 15776.7 27745.4 15773.6 27679.8 15751.5C27763.2 15959.5 27888.1 16148.3 28046.7 16306.5C28046.7 16306.5 28779.2 16633 29413.5 15917C29989.5 15267.7 29882.4 14134.6 29000.9 13868C28119.4 13601.3 27576.4 14102.4 27576.4 14102.4Z" fill="#263238"/>
<path d="M30014.9 15761.3C30188.7 15945.5 30155.7 16258.6 29940 16460.8C29724.3 16663 29411.3 16678 29237.5 16494.5C29063.8 16311 29096.7 15996.4 29312.4 15794.2C29528.1 15592 29840.4 15577 30014.9 15761.3Z" fill="#263238"/>
<path d="M29713.9 15439.2C29670.3 15453.3 29634.1 15484.1 29613.2 15524.8C29592.3 15565.5 29588.4 15612.8 29602.3 15656.4L29931 15550.8C29917 15507.3 29886.2 15471.1 29845.5 15450.2C29804.8 15429.2 29757.5 15425.3 29713.9 15439.2Z" fill="#263238"/>
<path d="M24966.4 18920.3C24823.3 18757.7 24800.1 18396 24609.9 18150.4C24419.7 17904.7 24454.1 17653.1 24335 17763.9C24216 17874.7 24305.1 18281.4 24305.1 18281.4C24305.1 18281.4 24084.1 18691.8 24064.7 18901.5C24045.2 19111.2 24602.4 19639.2 24602.4 19639.2L24966.4 18920.3Z" fill="#FFA8A7"/>
<path d="M24335 18253C24335 18253 24110.3 18567.5 23096.3 18156.3C22816.2 18043.3 23004.9 18645.4 23348.7 18894.8C23666.2 19125.5 24063.9 19194.4 24382.2 19412.3C24383 19381.6 24335 18253 24335 18253Z" fill="#FFA8A7"/>
<path d="M27539 17120.6C27249.9 17220.9 26997.5 17337.8 26727.9 17844C26381.1 18495.6 25754.3 19770.3 25754.3 19770.3L24966.4 18920.3C24966.4 18920.3 24851.8 18759.2 24639.1 19110.5C24426.4 19461.7 24520.8 19559.8 24520.8 19559.8C24520.8 19559.8 25434.5 20782.8 25601.5 20938.6C25768.5 21094.4 26044.8 20973.1 26224.6 20728.9C26404.3 20484.8 27333.7 18800.4 27333.7 18800.4C27333.7 18800.4 27947.1 17736.2 27539 17120.6Z" fill="#FFA8A7"/>
<path opacity="0.2" d="M28600.9 23873.7L28655.6 23289.5C28969.3 23242.6 29269.2 23128.7 29534.9 22955.5C29534.9 22955.5 29346.9 23255.1 28831.6 23393.6L28714.8 23962.8L28684.8 25097.4L28600.9 23873.7Z" fill="black"/>
<path d="M26947.3 19473C26947.3 19473 27310.5 18837.1 27333.7 18798.9L26918.1 20411.4L26947.3 19473Z" fill="#263238"/>
<path d="M22637.2 15658.7C22743.6 15770.2 22995.9 15856.4 24630.1 15975.5C24868 15998.6 25108 15967.1 25331.9 15883.3C25552.4 15796.4 25741.8 15645.4 25875.6 15449.7C25907.1 15406.6 25930.5 15358.2 25944.5 15306.7C25957.2 15255.8 25949.4 15202 25922.8 15156.9C25890.7 15114.3 25844.5 15084.6 25792.5 15073C25689.5 15049.6 25581.7 15061.2 25486.1 15105.9C25336.4 15164.4 25219.5 15184.6 25230.8 15153.9C25242 15123.2 25333.4 15095.5 25427 14989.9C25520.6 14884.3 25544.6 14736 25483.9 14690.3C25423.2 14644.6 25433.7 14654.3 25325.9 14744.2C25218 14834.1 25093.7 14879.8 24951.4 15017.6C24861.4 15120 24747.8 15199 24620.4 15247.5C24456.4 15312.7 24301.3 15293.2 23846 15220.5C23452.8 15157.6 23301.5 15135.2 23112.8 15030.3C22909.8 14721.7 22420 13417.9 22207.3 13060.6C21982.6 12682.4 21525.8 12671.2 21525.8 12671.2C21529.9 13136.8 21607.7 13598.9 21756.5 14040.2C21913.7 14482.1 22531.6 15548.6 22637.2 15658.7Z" fill="#B16668"/>
<path d="M21402.2 12628.5C21590.4 12597.2 21783.6 12631.3 21949.7 12725.1C22197.6 12880.9 22359.4 13169.2 22515.9 13530.2C22707.6 13969.1 22938.3 14556.2 22938.3 14556.2C22715.5 14772.9 22424.2 14905.3 22114.5 14930.7L21376.8 13704.7L21402.2 12628.5Z" fill="#455A64"/>
<path d="M19658 26691.9H20294.5V25602.2H19658V26691.9Z" fill="#B16668"/>
<path d="M21419.4 25876.3L22056 25898L22087.5 24745.4L21419.4 24723V25876.3Z" fill="#B16668"/>
<path d="M19386.8 17465.1C19386.8 18073.2 19494.7 21608.9 19494.7 21608.9C19479.7 21783.4 19311.2 22094.2 19298.5 22724.8C19279 23638.5 19631 26146.7 19631 26146.7C19740.9 26200.7 19861.2 26230 19983.7 26232.5C20106.1 26234.9 20227.5 26210.5 20339.5 26160.9C20339.5 26160.9 20628.6 22760 20742.4 21856.1C20842 21066.7 21010.5 18922.5 21010.5 18922.5L21310.1 21498.8C21236.3 21830.7 21209.6 22171.3 21230.7 22510.6C21260.7 22929.3 21380.5 25519.1 21380.5 25519.1C21491.4 25581.9 21614.9 25619.5 21742 25629.2C21869.1 25638.9 21996.8 25620.5 22115.9 25575.3C22115.9 25575.3 22565.3 21883 22572 21498.8C22580.3 21061.5 22405.8 16594.8 22405.8 16594.8L19386.8 17465.1Z" fill="#37474F"/>
<path d="M19805.5 12993.2C19665.5 13055.5 19555.3 13170 19498.4 13312.3C19433.3 13488.3 19401.8 13675 19405.6 13862.7V15109.7L19386.8 17465.1C20300.5 17946.6 21462.1 17978.8 22437.2 17266.6C22437.2 17266.6 22382.6 14235.7 22382.6 13739.9C22382.6 13717.4 22382.6 13695 22382.6 13671.7C22346.6 12963.3 21649.4 12473.5 20959.6 12653.9L20382.9 12803.7L19804 12994.7L19805.5 12993.2Z" fill="#F0F0F0"/>
<path d="M22058.7 11292.4C22400.3 10950.8 22400.3 10396.9 22058.7 10055.3C21717.1 9713.7 21163.3 9713.7 20821.6 10055.3C20480 10396.9 20480 10950.8 20821.6 11292.4C21163.3 11634 21717.1 11634 22058.7 11292.4Z" fill="#263238"/>
<path d="M19927.6 11295.4C19927.6 11295.4 20069.1 11961.2 20126 12071.3C20163.9 12138.7 20226.5 12188.9 20300.5 12211.3L20290.8 11743.2L19927.6 11295.4Z" fill="#263238"/>
<path d="M20105.1 10341.2C20055.6 10335.5 20005.4 10341.1 19958.4 10357.7C19911.4 10374.3 19868.8 10401.5 19834 10437.1C19717.1 10556.2 19782.3 10929.9 19927.6 11295.4L20194.2 11326.1L20105.1 10341.2Z" fill="#263238"/>
<path d="M20274.3 11326.1C20221.2 11358.3 20144.8 11255.7 20078.9 11186C20013 11116.4 19797.3 11022.8 19689.4 11249.7C19581.6 11476.6 19784.5 11785.2 19953.8 11838.4C20246.6 11930.5 20290.8 11743.2 20290.8 11743.2L20311.8 12829.9C20675.8 13296.5 21684.6 13256.8 21264.4 12770V12448.7C21394.6 12469.7 21526.7 12476.5 21658.4 12469C21873.3 12436 22008.9 12266 22074 12033.1C22178.9 11658.6 22218.6 11359 22130.2 10622.1C22032.1 9816.24 21095.2 9807.26 20588.9 10126.3C20082.6 10445.3 20274.3 11326.1 20274.3 11326.1Z" fill="#B16668"/>
<path d="M20274.3 11416.7C20247.4 11416.7 20145.5 11246.7 20078.9 11186C19986 11102.2 20105.1 10341.2 20105.1 10341.2C20080.9 10275.4 20076.5 10203.9 20092.3 10135.5C20108.1 10067.1 20143.5 10004.9 20194.2 9956.3C20320.8 9817 20458.6 9731.62 20823.3 9709.9C21073.4 9708.73 21323.4 9720.48 21572.2 9745.1C21932.5 9769.06 22065 9680.69 22272.5 9622.27C22430.5 9578.09 22448.5 10146.5 22047.8 10339C22047.8 10339 21917.5 10422.9 21575.2 10464.8C21258.8 10488.2 20940.9 10482.1 20625.6 10446.8C20526.7 10433.4 20505.7 10529.2 20451.8 10792.1C20403.9 11023.5 20364.9 11411.5 20274.3 11416.7Z" fill="#263238"/>
<path d="M20105.8 10400.4L19782.3 10226.7C19792.6 10204.9 19807.3 10185.4 19825.3 10169.5C19843.4 10153.5 19864.5 10141.4 19887.4 10133.8C19910.3 10126.2 19934.5 10123.4 19958.5 10125.5C19982.6 10127.5 20005.9 10134.4 20027.2 10145.8C20070.5 10170 20102.8 10210 20117.4 10257.4C20132.1 10304.8 20127.9 10356 20105.8 10400.4Z" fill="#263238"/>
<path d="M21263.7 12448.7C21263.7 12448.7 20783.6 12352.1 20615.8 12263C20517 12211.5 20436.1 12131.4 20383.7 12033.1C20408.9 12131.4 20453.8 12223.6 20515.5 12304.2C20638.3 12460.7 21264.4 12576.8 21264.4 12576.8L21263.7 12448.7Z" fill="#9A4A4D"/>
<path d="M21239.7 11206.3C21238.8 11225 21232.5 11243.1 21221.4 11258.2C21210.4 11273.4 21195.1 11285 21177.5 11291.6C21159.9 11298.1 21140.8 11299.4 21122.5 11295.2C21104.2 11291 21087.6 11281.6 21074.6 11268C21061.7 11254.4 21053 11237.3 21049.6 11218.9C21046.3 11200.4 21048.4 11181.4 21055.8 11164.1C21063.2 11146.9 21075.4 11132.1 21091.1 11121.8C21106.7 11111.5 21125.1 11105.9 21143.8 11105.9C21156.8 11106.1 21169.5 11108.9 21181.3 11114C21193.2 11119.2 21203.9 11126.7 21212.8 11136C21221.7 11145.3 21228.7 11156.4 21233.3 11168.4C21237.9 11180.5 21240.1 11193.4 21239.7 11206.3Z" fill="#263238"/>
<path d="M21137.8 10843L20931.9 10956.9C20917.4 10928.6 20914.3 10895.8 20923.2 10865.3C20932.1 10834.8 20952.4 10808.9 20979.8 10792.9C20993.4 10785.4 21008.4 10780.8 21023.8 10779.3C21039.2 10777.8 21054.8 10779.4 21069.6 10784.1C21084.3 10788.8 21098 10796.5 21109.7 10806.6C21121.5 10816.7 21131 10829.1 21137.8 10843Z" fill="#263238"/>
<path d="M21221.7 11870.6L21441.2 11953.7C21436.6 11968.7 21429.1 11982.6 21418.9 11994.6C21408.8 12006.6 21396.4 12016.3 21382.4 12023.4C21368.4 12030.4 21353.1 12034.4 21337.4 12035.3C21321.8 12036.2 21306.1 12033.9 21291.4 12028.6C21261.4 12016.6 21237.4 11993.3 21224.4 11963.8C21211.4 11934.2 21210.4 11900.8 21221.7 11870.6Z" fill="#9A4A4D"/>
<path d="M22070.3 10923.2L21882.3 10778.6C21891.1 10765.9 21902.3 10755 21915.5 10746.8C21928.6 10738.6 21943.3 10733.2 21958.6 10730.9C21973.9 10728.5 21989.5 10729.4 22004.4 10733.4C22019.4 10737.3 22033.4 10744.3 22045.6 10753.9C22070.5 10773.6 22087 10802.1 22091.6 10833.6C22096.2 10865.1 22088.6 10897.2 22070.3 10923.2Z" fill="#263238"/>
<path d="M22012.6 11178.5C22013.8 11191.9 22012.2 11205.4 22007.9 11218C22003.6 11230.7 21996.7 11242.4 21987.6 11252.3C21978.6 11262.2 21967.6 11270.1 21955.3 11275.5C21943 11280.9 21929.8 11283.7 21916.4 11283.7C21903 11283.7 21889.7 11280.9 21877.4 11275.5C21865.2 11270.1 21854.2 11262.2 21845.1 11252.3C21836.1 11242.4 21829.2 11230.7 21824.9 11218C21820.6 11205.4 21818.9 11191.9 21820.1 11178.5C21819.7 11165.7 21821.9 11152.9 21826.5 11140.8C21831.2 11128.8 21838.1 11117.8 21847.1 11108.6C21856 11099.3 21866.7 11091.9 21878.5 11086.8C21890.4 11081.7 21903.1 11079 21916 11078.9C21928.9 11079.1 21941.6 11081.9 21953.4 11087C21965.2 11092.1 21976 11099.5 21984.9 11108.7C21993.9 11118 22001 11128.9 22005.7 11140.9C22010.5 11152.9 22012.8 11165.7 22012.6 11178.5Z" fill="#263238"/>
<path d="M21522.1 11087.9L21553.5 11666.1L21856.1 11563.5L21522.1 11087.9Z" fill="#9A4A4D"/>
<path d="M20294.5 26377.4V26286.7C20355.2 26313 20496.8 26852.9 20749.9 27083.6C20950.6 27266.3 21224.7 27478.3 21294.4 27682.8C21364 27887.2 20912.4 28012.3 20725.2 27982.3C20507.2 27943.4 20126 27789.9 20034.7 27647.6C19943.3 27505.3 19895.4 27295.6 19818.2 27191.5C19741.1 27087.4 19563.6 26970.5 19518.7 26849.9C19496.2 26784 19523.2 26638.7 19555.4 26515.9C19587.6 26393.1 19616.8 26280 19655 26291.2V26360.1C19745.5 26431.7 19857.9 26469.8 19973.3 26468C20069.1 26465 20295.3 26448.5 20294.5 26377.4Z" fill="#263238"/>
<path d="M22062.8 25701.8C22095.7 25701.8 22122.7 25749.8 22195.3 25828.4C22304.2 25938.6 22430.8 26029.7 22569.8 26098C22808 26217.1 23271.6 26397.6 23481.3 26495.7C23612.3 26554.9 23606.3 26712.9 23470.8 26802.8C23335.2 26892.6 23008.7 26957.8 22615.5 26870.2C22402 26822.2 22123.4 26624.5 21947.4 26635C21771.4 26645.5 21441.2 26643.2 21310.8 26553.4C21180.5 26463.5 21236 26272.5 21269.7 26107.8C21310.1 25928.8 21360.3 25648.7 21419.4 25658.4V25720.6C21494.3 25835.9 21891.3 25883.1 22059 25795.4L22062.8 25701.8Z" fill="#263238"/>
<path d="M21010.5 18922.5C21339.3 18819.9 21641.5 18646.3 21895.8 18414C21895.8 18414 21725 18734.5 21215.7 19032.6L21283.9 21279.4L21010.5 18922.5Z" fill="#263238"/>
<path d="M18350.3 16157.4C18758.5 13768.4 19174.1 13041.9 19860.9 13017.2C20072.1 13245.6 20052.6 13969.1 19759.1 14421.4C19759.1 14421.4 19130 15939.5 19043.8 16472.7C18968.9 16940.8 18885.8 17528.7 18912 17927.2C18917.8 17997.4 18949 18063.2 18999.6 18112.2C19135.2 18245.5 19141.2 18357.1 19231.8 18506.8C19303 18624.4 19376.4 18665.6 19357.6 18694.1C19332.2 18724.1 19296.5 18743.4 19257.5 18748.3C19218.5 18753.1 19179.2 18743.1 19147.2 18720.3C19084.9 18679.8 19028.6 18630.6 18980.2 18574.3C19010 18720.9 19060.5 18862.6 19130 18995.2C19290.2 19312.7 19264 19480.5 18818.4 19386.8C18539.8 19327.7 18355.6 19106.7 18281.4 18447.7C18249.7 18205.1 18235.2 17960.6 18238 17716C18263.4 17085.4 18285.9 16533.4 18350.3 16157.4Z" fill="#B16668"/>
<path d="M20027.9 12919.8C19819.7 12958 19285.7 12976.7 19011.6 13528.7C18831.9 13891.9 18650.6 14461.1 18456.7 15142.6C18456.7 15142.6 18857.3 15557.6 19448.3 15498.4L19779.3 14544.2C20093.1 14138.3 20173.2 13225.4 20027.9 12919.8Z" fill="#455A64"/>
<path d="M16236.8 12759.5C15654.9 10416.1 14989.9 9872.41 15611.5 9556.36C16250.3 9494.2 16579.8 9871.66 16690.7 10544.2C16745.4 10873.7 16863.7 12224.8 17012 12754.3C17143 13219.4 17318.3 13799.1 17513 14154.8C17548.1 14217.7 17605.2 14265.5 17673.3 14288.9C17855.3 14354 17909.2 14455.1 18056.7 14554.7C18172.8 14629.6 18258.2 14639.4 18253 14673.1C18242.7 14711.8 18218.1 14745.1 18184.2 14766.4C18150.3 14787.7 18109.5 14795.3 18070.2 14787.7C17995.3 14776.7 17922.2 14755.5 17853 14724.7C17942.6 14847.4 18049 14956.8 18169.1 15049.8C18453.7 15274.5 18500.9 15442.2 18049.2 15545.6C17766.2 15610 17501.8 15484.9 17150.5 14907.5C17017.1 14696.8 16899 14476.8 16797 14249.2C16552.9 13658.3 16330.5 13140 16236.8 12759.5Z" fill="#FFA8A7"/>
<path d="M14228.9 23210.9V23120.3C14264.9 23226.6 14431.2 23685.7 14683.6 23915.6C14884.3 24099.1 15157.6 24310.3 15227.3 24514.8C15296.9 24719.2 14846.8 24797.9 14658.8 24764.9C14441.6 24726.7 14160 24603.1 14006.5 24414.4C13898.7 24281.9 13829.8 24125.3 13752.6 24021.2C13675.5 23917.1 13498.7 23800.3 13453.1 23679.7C13430.6 23613.8 13457.5 23468.5 13489.8 23346.4C13522 23224.4 13551.2 23109.8 13589.4 23121.8V23190.7C13680.1 23261.7 13792.4 23299.7 13907.7 23298.5C14004.3 23300 14229.7 23282 14228.9 23210.9Z" fill="#263238"/>
<path d="M14864.8 24076.6C14802.6 24021.2 14740.5 23967.3 14683.6 23914.9C14507.6 23754.6 14372.7 23482 14295.6 23295.5C14251.6 23189.7 14228.9 23076.1 14228.9 22961.5V22599H13593.1V23188.4V23204.1C13623.8 23336 13915.9 23687.2 14081.4 23916.4C14192.3 24069.9 14403.5 24265.4 14655.8 24299.1C14898.5 24333.5 15020.6 24257.9 14864.8 24076.6Z" fill="#FFA8A7"/>
<path d="M16709.4 22584V22495.7C16744.6 22602 16911.6 23061.1 17163.3 23291C17364 23474.5 17638.1 23685.7 17707 23890.2C17775.9 24094.6 17326.5 24173.3 17139.3 24140.3C16921.4 24102.1 16639.8 23978.5 16486.2 23789.8C16378.4 23657.2 16310.2 23500.7 16233.1 23396.6C16155.9 23292.5 15978.5 23175.7 15937.3 23055.1C15914 22989.2 15941 22843.9 15973.2 22721.8C16005.4 22599.8 16034.6 22485.9 16073.6 22497.1V22566.1C16164 22637.1 16276.1 22675.2 16391.1 22673.9C16484 22673.1 16710.2 22655.2 16709.4 22584Z" fill="#263238"/>
<path d="M17345.3 23449.8C17283.1 23394.4 17220.2 23340.4 17163.3 23288.8C16987.3 23127.7 16853.2 22855.1 16776.1 22668.7C16731.9 22562.8 16709.3 22449.3 16709.4 22334.6V21971.4H16073.6V22560.8V22576.5C16104.3 22708.3 16395.6 23059.6 16561.9 23288.8C16672.7 23442.3 16883.9 23637.8 17136.3 23671.5C17378.2 23706.7 17500.3 23631 17345.3 23449.8Z" fill="#FFA8A7"/>
<path d="M13719.7 13329.5C13226.9 14405.7 13737.7 18197.5 13737.7 18197.5C13722.7 18372 13522.7 18716.5 13448.6 19484.9C13360.2 20393.4 13586.4 22675.4 13586.4 22675.4C13683.3 22731.6 13792.5 22763.4 13904.5 22767.8C14016.5 22772.2 14127.9 22749.3 14228.9 22700.9C14228.9 22700.9 14834.8 19264.8 14948.7 18361.5C15048.3 17572.9 15239.3 15839.1 15239.3 15839.1L15781.5 18357.1C15702.2 18611.1 15644.9 18871.4 15610 19135.2C15558.3 19666.2 16073.6 22140.7 16073.6 22140.7C16073.6 22140.7 16293 22220.8 16709.4 22159.4C16709.4 22159.4 16891.4 18876.8 16939.3 18236.5C17019.5 17161.8 16734.1 13807.3 16537.2 13170.7L13719.7 13329.5Z" fill="#00A0E6"/>
<path opacity="0.1" d="M15239.3 15839.9L15399.5 14840.1C15399.5 14840.1 16073.6 14700 16383.6 14410.9C16383.6 14410.9 16061.6 14812.4 15583 14943.4L15403.3 15713.3L15717.1 18044L15239.3 15839.9Z" fill="black"/>
<path d="M14589.2 9588.57C13957.1 9632.01 13915.1 9937.57 13754.9 10271.6C13638.8 10528.6 13628.1 10820.8 13724.9 11085.7L14165.3 12358.9C13985.8 12668.3 13836.6 12994.4 13719.7 13332.5C14825.1 13948.8 16204.6 13624.6 16537.2 13174.5C16551.4 13079.3 16466 12332.7 16412.8 11845.1C16607.6 11356.8 16659.2 11047.5 16576.8 10721.7C16427.1 10122.6 15833.2 9539.14 15571 9560.11L14589.2 9588.57Z" fill="#F5F5F5"/>
<path d="M15340.4 9008.15H14874.5C14720.2 9008.84 14567.2 8979.1 14424.3 8920.64C14281.4 8862.17 14151.4 8776.13 14041.8 8667.42C13932.2 8558.71 13845.1 8429.47 13785.4 8287.08C13725.8 8144.69 13694.8 7991.94 13694.2 7837.57C13692.6 7464.07 13839.4 7105.23 14102.3 6839.94C14365.2 6574.65 14722.7 6424.62 15096.2 6422.83C15281.2 6422.05 15464.6 6457.7 15635.8 6527.77C15807 6597.84 15962.7 6700.95 16094.1 6831.2C16225.5 6961.46 16329.9 7116.32 16401.4 7286.93C16472.9 7457.55 16510.2 7640.58 16510.9 7825.58C16511.9 7980.15 16482.4 8133.39 16424.1 8276.53C16365.8 8419.66 16279.8 8549.89 16171 8659.74C16062.3 8769.59 15932.9 8856.91 15790.4 8916.7C15647.9 8976.48 15494.9 9007.56 15340.4 9008.15Z" fill="#263238"/>
<path d="M14731.5 6094.05C14932.9 6393.63 14719.5 6592.84 14422.9 6794.3C14126.3 6995.77 13860.5 7118.59 13659 6822.76C13457.5 6526.94 13568.4 6195.91 13865 5998.94C14161.5 5801.97 14530.8 5798.23 14731.5 6094.05Z" fill="#263238"/>
<path d="M14006.5 7010.74L13706.9 7230.93C13691.6 7212.05 13680.3 7190.26 13673.6 7166.88C13666.9 7143.5 13665 7119.01 13668 7094.88C13671 7070.74 13678.9 7047.47 13691.1 7026.45C13703.3 7005.43 13719.7 6987.09 13739.1 6972.55C13779.9 6942.73 13830.6 6930.04 13880.6 6937.18C13930.6 6944.31 13975.8 6970.72 14006.5 7010.74Z" fill="#263238"/>
<path d="M15967.2 7052.69C16117 7139.57 16302 7513.28 16287 8298.16C16274.3 8963.21 16062.3 9127.98 15951.5 9175.91C15840.6 9223.84 15634.7 9196.13 15431.7 9163.18L15443.7 9566.85C15443.7 9566.85 15785.2 9846.95 15768.8 10029.7C15752.3 10212.4 15294.7 10297.1 15031.1 10119.6C14859.3 10000.1 14700.2 9863.31 14556.2 9711.4C14549.4 9703.78 14545.7 9693.9 14545.7 9683.69V8677.12C14545.7 8677.12 14426.7 8793.96 14223.7 8617.21C14055.9 8471.92 13999 8225.52 14127.8 8092.96C14161.4 8061.29 14202.1 8038.08 14246.5 8025.25C14290.8 8012.43 14337.6 8010.36 14382.9 8019.22C14428.2 8028.08 14470.8 8047.61 14507 8076.19C14543.3 8104.77 14572.2 8141.58 14591.4 8183.58C14591.4 8183.58 14915.7 8194.06 15345.6 7955.15C15512.9 7864.23 15656.4 7735.12 15764.4 7578.3C15872.4 7421.49 15941.9 7241.41 15967.2 7052.69Z" fill="#FFA8A7"/>
<path d="M15544.1 8134.14C15544.3 8150.6 15539.8 8166.77 15530.9 8180.64C15522.1 8194.51 15509.3 8205.48 15494.3 8212.16C15479.3 8218.85 15462.6 8220.97 15446.4 8218.25C15430.1 8215.53 15415 8208.1 15403 8196.88C15391 8185.65 15382.5 8171.14 15378.7 8155.14C15374.8 8139.14 15375.7 8122.36 15381.4 8106.89C15387 8091.42 15397 8077.95 15410.2 8068.15C15423.5 8058.34 15439.3 8052.65 15455.7 8051.76C15478.3 8051.15 15500.2 8059.45 15516.8 8074.86C15533.3 8090.27 15543.1 8111.56 15544.1 8134.14Z" fill="#263238"/>
<path d="M15568.8 8697.34L15763.5 8758.75C15760 8771.78 15753.9 8783.97 15745.6 8794.6C15737.2 8805.23 15726.9 8814.09 15715.1 8820.65C15703.3 8827.21 15690.3 8831.34 15676.9 8832.8C15663.5 8834.26 15649.9 8833.02 15636.9 8829.15C15610.9 8820.08 15589.3 8801.35 15576.6 8776.83C15563.9 8752.31 15561.1 8723.86 15568.8 8697.34Z" fill="#F28F8F"/>
<path d="M16228.6 7874.27L16058.6 7758.18C16065.6 7746.66 16074.9 7736.68 16085.9 7728.88C16096.9 7721.07 16109.3 7715.6 16122.5 7712.79C16135.7 7709.99 16149.3 7709.91 16162.5 7712.56C16175.8 7715.22 16188.3 7720.55 16199.4 7728.22C16222 7744.26 16237.5 7768.3 16243 7795.45C16248.4 7822.59 16243.3 7850.79 16228.6 7874.27Z" fill="#263238"/>
<path d="M16190.4 8071.23C16190.5 8087.65 16185.8 8103.75 16176.9 8117.53C16167.9 8131.31 16155.1 8142.15 16140.1 8148.73C16125 8155.3 16108.4 8157.31 16092.2 8154.5C16076 8151.7 16061 8144.21 16049 8132.95C16037.1 8121.7 16028.7 8107.18 16024.9 8091.2C16021.1 8075.21 16022.1 8058.47 16027.7 8043.05C16033.4 8027.62 16043.4 8014.19 16056.6 8004.42C16069.8 7994.65 16085.6 7988.98 16102 7988.1C16124.7 7987.49 16146.8 7995.89 16163.3 8011.46C16179.9 8027.03 16189.6 8048.51 16190.4 8071.23Z" fill="#263238"/>
<path d="M15813.7 7982.86L15811.4 8528.08L16075.8 8444.95L15813.7 7982.86Z" fill="#F28F8F"/>
<path d="M15431.7 9164.67C15217.5 9136.96 14777.2 9014.88 14708.3 8838.88C14735.4 8928.04 14789.6 9006.56 14863.3 9063.56C14995.1 9175.15 15435.5 9301.72 15435.5 9301.72L15431.7 9164.67Z" fill="#F28F8F"/>
<path d="M14871.5 13448.6C14785 13428.6 14703.3 13391.6 14631.3 13339.8C14559.3 13287.9 14498.3 13222.1 14452 13146.4C14405.7 13070.6 14374.9 12986.4 14361.6 12898.6C14348.2 12810.9 14352.5 12721.3 14374.2 12635.2C14377.3 12623.3 14381.1 12611.5 14385.5 12600C14400.5 12553.4 14430.9 12513.2 14471.7 12486C14512.5 12458.8 14561.3 12446.2 14610.2 12450.2C14543.3 12398.9 14487.2 12334.8 14445.3 12261.7C14403.4 12188.5 14376.5 12107.8 14366 12024.1L14199.7 11240C14183.7 11110 14195.2 10978 14233.4 10852.8L13789.3 10339L13707.7 10395.9C13640.2 10621.4 13646.5 10862.5 13725.7 11084.2L14166 12357.4C13983.9 12665.4 13834.5 12991.8 13720.4 13331C14080 13524.3 14476.8 13638.3 14884.2 13665.1C15291.6 13692 15700 13631.2 16081.8 13486.8C15679.6 13551 15268.9 13538 14871.5 13448.6Z" fill="#E0E0E0"/>
<path d="M14631.1 15328.4L13023.9 14407.2C13023.9 14407.2 12242 15481.2 12774.5 15784.5C13307 16087.8 13835 16397.1 14365.3 16703.4C14965.9 16471.2 14631.1 15328.4 14631.1 15328.4Z" fill="#37474F"/>
<path d="M14365.3 15481.2L13107.8 14753.9V14823.6L14365.3 15558.3V15481.2Z" fill="#00A0E6"/>
<path d="M14631.1 15328.4C14527.8 15665.4 14217 16620.3 14366 16706.4C14515 16792.5 14975.6 16496 14965.1 16317C14938.9 15812.9 14631.1 15328.4 14631.1 15328.4Z" fill="#455A64"/>
<path d="M14187 9585.57C14252.8 9579.04 14318.9 9593.59 14375.8 9627.11C14432.8 9660.64 14477.6 9711.4 14503.8 9772.06C14760.7 10260.4 14583.9 15302.2 14583.9 15302.2L14410.2 15202.6C14410.2 15202.6 14470.9 13577.4 14464.9 12097.5C14460.4 11010.8 14419.9 9984.76 14373.5 9873.17C14351.3 9808.93 14307.9 9754.14 14250.5 9717.8C14193.1 9681.47 14125 9665.74 14057.4 9673.2C14071.3 9650.02 14090.1 9630.16 14112.5 9615.02C14134.9 9599.88 14160.3 9589.83 14187 9585.57Z" fill="#263238"/>
<path d="M12588.8 12759.5C13080.1 10750.9 13461.3 9888.89 13999 9688.93C14039.3 9673.3 14082.5 9666.89 14125.6 9670.18C14168.7 9673.46 14210.5 9686.35 14247.9 9707.9C14285.3 9729.45 14317.4 9759.12 14341.9 9794.72C14366.4 9830.31 14382.5 9870.94 14389.2 9913.61C14435.6 10319 14335.5 10727.5 14106.9 11065.5C14106.9 11065.5 13390.1 12578.3 13275.6 13116C13175.2 13586.4 13062.1 14178 13068.1 14583.9C13069.6 14657.1 13097.9 14727.2 13147.5 14780.9C13279.3 14923.2 13279.3 15037.8 13364.7 15195.1C13430.6 15317.9 13503.2 15364.3 13483 15391.3C13455.8 15420.8 13418.4 15438.9 13378.4 15441.9C13338.4 15445 13298.7 15432.8 13267.3 15407.8C13206.2 15363.3 13151.5 15310.6 13104.8 15251.2C13127 15401.6 13170.4 15548.1 13233.6 15686.4C13383.4 16018.1 13345.2 16187.4 12897.3 16069.1C12616.5 15994.2 12440.5 15761.3 12398.6 15086.5C12377.7 14837.4 12375.2 14587 12391.1 14337.5C12453.2 13700.2 12495.9 13137.8 12588.8 12759.5Z" fill="#FFA8A7"/>
<path d="M12260 9913.61C12304.9 9474.73 12304.9 9289 12291.5 9234.33C12230 8984.93 12056.3 8784.97 11873.6 8485.4C11560.5 7966.39 11087.2 7156.04 10869.2 6842.99C10697 6597.34 10511.3 6453.54 10227.4 6468.52C10029.7 6479.76 10183.2 7262.39 10377.2 7826.34L11422 9268.03C11456.4 9315.12 11472.1 9373.28 11466.1 9431.3L11364.3 10458.8L11697.6 10904.4C11697.6 10904.4 12202.3 10473.1 12260 9913.61Z" fill="#FFA8A7"/>
<path d="M12266 9850.7C12251 9775.8 12198.6 9709.15 12061.5 9714.39C11924.5 9719.63 11817.4 9896.38 11817.4 9896.38L12203.8 10067.9C12224.1 10017 12243.5 9964.53 12260 9912.11C12262.3 9891.14 12264.5 9870.92 12266 9850.7Z" fill="#F28F8F"/>
<path d="M10112.8 6461.03C10112.8 6461.03 10542 6407.11 10780.1 6666.24C11018.3 6925.37 11134.4 7141.81 11365 7524.52C11642.9 7985.86 11763.5 8222.52 11763.5 8222.52C11763.5 8222.52 11329.1 8802.94 10688.7 8727.3L10112.8 6461.03Z" fill="#37474F"/>
<path d="M10854.7 5074.93C11201.3 4728.35 11201.3 4166.42 10854.7 3819.84C10508.2 3473.26 9946.23 3473.26 9599.64 3819.84C9253.06 4166.42 9253.06 4728.35 9599.64 5074.93C9946.23 5421.52 10508.1 5421.52 10854.7 5074.93Z" fill="#263238"/>
<path d="M8102.69 20531.2H8728.04V19461H8102.69V20531.2Z" fill="#FFA8A7"/>
<path d="M10270.1 19782.3L10894.7 19804L10926.2 18671.6L10301.6 18650.6L10270.1 19782.3Z" fill="#FFA8A7"/>
<path d="M8143.88 10979.3C8143.88 11578.5 8068.99 15193.6 8068.99 15193.6C8054.01 15365.1 7893.74 15681.9 7928.19 16341.7C7975.37 17240.4 8053.26 19566.6 8053.26 19566.6C8053.26 19566.6 8346.09 19857.2 8759.5 19566.6C8759.5 19566.6 9325.69 16346.2 9438.03 15456.4C9535.39 14681.3 9701.66 12576.1 9701.66 12576.1L10047.7 15496.9C10047.7 15496.9 9945.81 16079.6 9923.34 16490.7C9900.87 16901.9 10262.6 18988.4 10262.6 18988.4C10363.8 19051.8 10479.8 19087.5 10599.1 19092.1C10718.4 19096.7 10836.9 19070 10942.6 19014.6C10942.6 19014.6 11212.3 15832.4 11276.7 15460.9C11341.1 15089.5 11069.2 10977.8 11069.2 10977.8L8143.88 10979.3Z" fill="#EBEBEB"/>
<path d="M8744.52 6661.74C8611.46 6685.12 8488.31 6747.39 8390.61 6840.7C8292.91 6934 8225.03 7054.15 8195.56 7186C8161 7341.9 8143.67 7501.13 8143.88 7660.82V10978.6C8582 11455.7 10109.8 11678.1 11064.7 10978.6C11064.7 10978.6 11046 8048.02 10974.8 7566.45C10849.8 6729.9 10450.6 6431.82 10047.7 6462.53L9082.29 6601.08L8744.52 6661.74Z" fill="#00A0E6"/>
<path d="M8693.59 5077.75C8693.59 5077.75 8837.39 5751.79 8895.06 5864.88C8933.52 5933.24 8996.81 5984.19 9071.8 6007.18L9062.07 5531.61L8693.59 5077.75Z" fill="#263238"/>
<path d="M8874.09 4110.13C8823.77 4104.41 8772.82 4110.2 8725.07 4127.07C8677.32 4143.93 8634.03 4171.44 8598.48 4207.49C8480.15 4328.07 8546.8 4707.03 8693.59 5077.75L8964.71 5109.21L8874.09 4110.13Z" fill="#263238"/>
<path d="M9045.59 5109.21C8991.67 5142.16 8914.53 5034.31 8847.13 4967.66C8779.72 4901 8561.78 4801.39 8452.44 5031.32C8343.1 5261.24 8549.05 5575.04 8720.56 5630.46C9020.13 5724.08 9062.07 5533.1 9062.07 5533.1L9084.54 6603.32C9150.15 6746.86 9250.28 6871.91 9376 6967.31C9501.72 7062.71 9649.11 7125.49 9805.01 7150.04C10329.3 7221.19 10222.9 6787.56 10049.9 6574.86V6249.83C10182.1 6270.78 10316.2 6277.56 10449.8 6270.05C10667.8 6236.35 10804.8 6064.09 10871.5 5828.18C10977.8 5448.47 11021.3 5142.16 10927.7 4396.22C10828.8 3579.14 9879.15 3572.4 9364.64 3893.69C8850.12 4214.98 9045.59 5109.21 9045.59 5109.21Z" fill="#FFA8A7"/>
<path d="M9045.59 5200.58C9018.63 5200.58 8914.53 5029.07 8847.13 4967.66C8753.51 4882.28 8874.09 4110.13 8874.09 4110.13C8849.57 4043.33 8845.08 3970.83 8861.18 3901.52C8877.28 3832.2 8913.26 3769.1 8964.71 3719.94C9092.77 3578.39 9307.72 3562.66 9673.95 3505.75C9865.67 3475.04 10157 3421.86 10348 3385.92C10577.2 3343.23 10766.6 3298.29 10928.4 3439.09C10991.9 3493.92 11036.8 3567.09 11056.9 3648.52C11077 3729.95 11071.4 3815.61 11040.7 3893.69C11024.3 3929.41 11002.4 3962.27 10975.6 3991.05C10931.9 4042.98 10875 4082.07 10810.8 4104.14C10810.8 4104.14 10711.2 4193.26 10361.5 4235.2C10040.6 4259.33 9718.11 4253.31 9398.34 4217.23C9297.98 4203.75 9276.26 4301.11 9222.34 4567.73C9177.4 4802.15 9137.71 5199.08 9045.59 5200.58Z" fill="#263238"/>
<path d="M8874.84 4170.05L8546.8 3997.04C8557.14 3974.88 8571.89 3955.06 8590.16 3938.8C8608.42 3922.54 8629.8 3910.17 8653.01 3902.46C8676.22 3894.75 8700.75 3891.85 8725.11 3893.95C8749.48 3896.05 8773.16 3903.1 8794.7 3914.66C8838.04 3939.05 8870.45 3979.04 8885.34 4026.49C8900.23 4073.93 8896.47 4125.27 8874.84 4170.05Z" fill="#263238"/>
<path d="M10049.2 6248.33C10049.2 6248.33 9562.35 6150.22 9391.6 6059.6C9291.59 6007.35 9209.65 5926.18 9156.43 5826.69C9182.35 5926.33 9227.93 6019.78 9290.49 6101.54C9414.81 6260.32 10049.2 6377.9 10049.2 6377.9V6248.33Z" fill="#F28F8F"/>
<path d="M9932.33 4987.88C9933.51 5001.44 9931.87 5015.09 9927.5 5027.98C9923.13 5040.86 9916.12 5052.69 9906.93 5062.73C9897.74 5072.76 9886.56 5080.77 9874.11 5086.25C9861.65 5091.73 9848.2 5094.56 9834.59 5094.56C9820.99 5094.56 9807.53 5091.73 9795.08 5086.25C9782.62 5080.77 9771.44 5072.76 9762.25 5062.73C9753.06 5052.69 9746.06 5040.86 9741.69 5027.98C9737.31 5015.09 9735.67 5001.44 9736.86 4987.88C9736.56 4974.84 9738.85 4961.86 9743.59 4949.71C9748.33 4937.55 9755.43 4926.45 9764.48 4917.05C9773.53 4907.65 9784.35 4900.14 9796.32 4894.94C9808.29 4889.75 9821.17 4886.97 9834.22 4886.78C9860.57 4887.37 9885.64 4898.3 9904 4917.22C9922.35 4936.14 9932.53 4961.52 9932.33 4987.88Z" fill="#263238"/>
<path d="M9828.22 4619.41L9620.02 4734.74C9604.91 4706.14 9601.55 4672.78 9610.63 4641.73C9619.72 4610.69 9640.55 4584.41 9668.7 4568.48C9682.43 4560.92 9697.55 4556.24 9713.15 4554.72C9728.75 4553.2 9744.49 4554.87 9759.42 4559.63C9774.35 4564.4 9788.15 4572.16 9799.98 4582.43C9811.81 4592.71 9821.42 4605.29 9828.22 4619.41Z" fill="#263238"/>
<path d="M10005 5661.92L10229.7 5745.05C10225 5759.99 10217.4 5773.83 10207.3 5785.75C10197.1 5797.67 10184.7 5807.42 10170.7 5814.41C10156.7 5821.41 10141.5 5825.5 10125.9 5826.45C10110.2 5827.4 10094.6 5825.19 10079.9 5819.94C10049.1 5808.77 10024 5785.91 10009.9 5756.33C9995.92 5726.74 9994.13 5692.82 10005 5661.92Z" fill="#F28F8F"/>
<path d="M10802.6 4700.29L10611.6 4550.51C10620.6 4537.68 10632.1 4526.82 10645.4 4518.58C10658.7 4510.34 10673.6 4504.9 10689.1 4502.58C10704.5 4500.27 10720.3 4501.14 10735.5 4505.13C10750.6 4509.12 10764.8 4516.15 10777.1 4525.79C10803.2 4545.85 10820.5 4575.3 10825.2 4607.88C10830 4640.46 10821.9 4673.61 10802.6 4700.29Z" fill="#263238"/>
<path d="M10743.4 4960.17C10742.5 4979.21 10736.1 4997.58 10724.9 5012.98C10713.7 5028.39 10698.2 5040.17 10680.3 5046.86C10662.5 5053.54 10643 5054.84 10624.5 5050.59C10605.9 5046.34 10589 5036.73 10575.8 5022.95C10562.6 5009.17 10553.8 4991.83 10550.4 4973.08C10547 4954.33 10549.1 4934.99 10556.6 4917.46C10564.1 4899.93 10576.6 4884.98 10592.5 4874.47C10608.4 4863.95 10627 4858.34 10646.1 4858.32C10659.1 4858.61 10672 4861.48 10684 4866.75C10696 4872.03 10706.8 4879.61 10715.8 4889.07C10724.9 4898.53 10732 4909.68 10736.7 4921.88C10741.4 4934.08 10743.7 4947.09 10743.4 4960.17Z" fill="#263238"/>
<path d="M10246.1 4867.3L10278.3 5454.47L10584.6 5349.62L10246.1 4867.3Z" fill="#F28F8F"/>
<path d="M8728.05 20222.6V20133.5C8787.96 20159.7 8926.51 20689.2 9177.41 20915.4C9375.12 21095.1 9643.99 21303.4 9712.14 21503.3C9780.3 21703.3 9337.68 21827.6 9153.44 21794.7C8939.25 21756.5 8568.53 21605.9 8479.4 21466.6C8390.28 21327.3 8342.35 21120.6 8266.71 21017.3C8191.06 20913.9 8016.56 20800.8 7975.37 20682.5C7952.9 20617.3 7979.87 20475 8011.32 20354.5C8042.78 20233.9 8071.98 20122.3 8109.43 20129.8V20197.9C8198.55 20267.5 8308.67 20304.7 8421.73 20303.5C8507.11 20310.3 8728.8 20292.3 8728.05 20222.6Z" fill="#263238"/>
<path d="M10901.4 19611.5C10933.6 19611.5 10959.9 19657.9 11031.8 19735.8C11138.5 19844.1 11262.9 19933.5 11399.5 20000.2C11633.2 20117.8 12088.5 20299.8 12298.2 20390.4C12427 20448.1 12420.3 20603.9 12287.7 20690C12155.2 20776.1 11833.9 20839.8 11448.2 20755.9C11237.7 20708.7 10964.4 20514.7 10791.4 20525.2C10618.3 20535.7 10294.8 20533.5 10166.7 20445.1C10038.7 20356.7 10091.8 20169.5 10126.3 20007.7C10166 19831.7 10222.2 19558.3 10280.6 19573.3V19629.5C10355.5 19742.6 10738.2 19789 10902.9 19704.4L10901.4 19611.5Z" fill="#263238"/>
<path d="M9699.41 12576.1C10022.4 12475.3 10319.5 12305.1 10569.7 12077.3C10569.7 12077.3 10401.2 12391.8 9902.37 12683.9L10045.4 15498.4L9699.41 12576.1Z" fill="#E0E0E0"/>
<path d="M7176.26 11919.2C7196.27 12202.9 7233.79 12485 7288.6 12764C7475.83 13486 7715.49 13702.4 8037.53 13723.4C8547.55 13757.9 8550.55 13566.9 8322.12 13238.1C8222.45 13094.7 8146.58 12936.1 8097.45 12768.5C8172.31 12831 8254.56 12884.1 8342.35 12926.6C8381.49 12946.9 8426.84 12951.8 8469.42 12940.3C8512 12928.8 8548.71 12901.7 8572.27 12864.4C8588.75 12829.9 8497.38 12795.5 8402.26 12676.4C8277.94 12526.6 8214.28 12403.1 8042.03 12276.5C7984.69 12220.1 7948.24 12145.9 7938.67 12066C7913.21 11963.4 7895.23 10326.3 7988.1 9987.75L8426.23 8414.99C8783.47 8170.09 9163.18 6958.32 8620.95 6700.69C8111.68 6758.35 7740.21 7424.16 7185.25 9480.72C7081.89 9842.45 7118.59 11359 7176.26 11919.2Z" fill="#FFA8A7"/>
<path d="M8728.04 6668.48C8797.82 6730.45 8853.57 6806.6 8891.54 6891.84C8929.51 6977.09 8948.84 7069.46 8948.23 7162.78C8962.46 7505.79 8798.44 8000.08 8704.83 8309.39C8611.21 8618.7 8405.25 9178.15 8405.25 9178.15C8405.25 9178.15 7567.2 9082.29 7376.22 8590.24C7376.22 8590.24 7769.41 7317.06 8146.87 6906.64C8218.92 6824.94 8308.83 6760.95 8409.63 6719.64C8510.42 6678.34 8619.38 6660.83 8728.04 6668.48Z" fill="#37474F"/>
<path d="M12159.7 9373.62L12093 9316.71C12083.1 9310.12 12071.7 9306.01 12059.8 9304.7C12048 9303.4 12036 9304.95 12024.8 9309.22L11308.9 9503.94C11272.8 9515.8 11239.7 9535.33 11211.9 9561.19C11184.1 9587.04 11162.3 9618.61 11147.8 9653.73L10631.8 11141.1C10625.8 11153.1 10623.5 11166.7 10625.2 11180C10627 11193.4 10632.7 11205.9 10641.6 11216L10709.7 11275.2V11225.7H10715L11431.7 11031C11467.8 11019.2 11500.8 10999.6 11528.6 10973.8C11556.4 10947.9 11578.3 10916.3 11592.7 10881.2C11693.8 10588.4 12006.9 9682.93 12108.7 9393.1C12111.5 9384.59 12113.2 9375.79 12114 9366.88L12159.7 9373.62Z" fill="#455A64"/>
<path d="M10695.5 11200.3L11210.8 9712.14C11225.3 9677.08 11247.2 9645.56 11274.9 9619.71C11302.7 9593.87 11335.8 9574.3 11371.8 9562.36L12088.5 9367.63C12155.2 9349.66 12190.4 9387.85 12167.9 9452.26C12066.8 9745.09 11753.7 10650.6 11652.6 10940.4C11638 10975.4 11616 11006.8 11588.3 11032.7C11560.5 11058.5 11527.6 11078.1 11491.6 11090.2L10774.9 11284.9C10708.2 11302.9 10673 11261.7 10695.5 11200.3Z" fill="#263238"/>
<path d="M11958.2 10051.4C11908 10201.2 11727.5 10303.8 11433.9 10374.2C11140.4 10444.6 10974.1 10758.4 11022 10854.3C11070 10950.1 11546.3 11038.5 11738.8 11011.5C11931.2 10984.6 12123 10707.5 12180.6 10622.1C12238.3 10536.7 12306.4 9938.32 12245 9856.69C12220.4 9831.57 12190.5 9812.29 12157.4 9800.23C12124.4 9788.18 12089.1 9783.67 12054 9787.03L11958.2 10051.4Z" fill="#FFA8A7"/>
<path d="M6462.53 7891.49L4620.91 6838.49C4620.91 6838.49 3722.19 8070.48 4334.81 8418.74C4947.44 8766.99 5551.08 9120.49 6158.46 9471.74C6847.48 9201.37 6462.53 7891.49 6462.53 7891.49Z" fill="#00A0E6"/>
<path opacity="0.2" d="M6462.53 7891.49L4620.91 6838.49C4620.91 6838.49 3722.19 8070.48 4334.81 8418.74C4947.44 8766.99 5551.08 9120.49 6158.46 9471.74C6847.48 9201.37 6462.53 7891.49 6462.53 7891.49Z" fill="black"/>
<path d="M6158.46 8066.74L4942.95 7364.25V7444.38L6158.46 8154.37V8066.74Z" fill="#263238"/>
<path d="M6462.53 7891.49C6344.2 8278.69 5987.71 9372.88 6158.46 9471.74C6329.22 9570.6 6857.96 9230.58 6847.48 9022.38C6816.77 8446.45 6462.53 7891.49 6462.53 7891.49Z" fill="#00A0E6"/>
<path d="M3747.65 0H3985.06C4338.62 0 4677.7 140.451 4927.71 390.455C5177.71 640.46 5318.16 979.538 5318.16 1333.1V4165.56H2414.55V1333.1C2414.55 979.538 2555.01 640.46 2805.01 390.455C3055.01 140.451 3394.09 0 3747.65 0Z" fill="#263238"/>
<path d="M6480.5 6476.76C6654.25 6314.99 6583.11 6126.26 6341.95 5608.75C6100.8 5091.24 5527.11 3894.44 5383.32 3637.56C5132.43 3188.2 4838.1 3165.73 4395.48 3167.23C4217.23 3167.23 4668.84 3678 4872.55 4173.05C5056.03 4622.41 5771.26 6086.57 5771.26 6086.57L6480.5 6476.76Z" fill="#B16668"/>
<path d="M3651.79 18077C3588.13 18020 3523.72 17963.9 3465.3 17910.7C3284.06 17745.9 3146.26 17465.8 3066.87 17274.9C3021.82 17165.9 2998.66 17049 2998.72 16931.1V16556.6H2348.65V17161.8V17178.2H2352.39C2383.85 17313.8 2683.42 17674.8 2853.43 17909.9C2967.26 18068 3184.46 18268.7 3443.59 18303.1C3685.49 18336.8 3811.31 18259 3651.79 18077Z" fill="#B16668"/>
<path d="M5538.35 17080.1C5556.52 17069.5 5572.32 17055.2 5584.78 17038.2C5635.71 16968.5 5595.27 16930.3 5558.57 16874.9C5513.6 16797.2 5475.99 16715.5 5446.23 16630.8C5416.27 16555.9 5376.58 16424.1 5376.58 16424.1C5376.58 16424.1 5376.58 16326 5376.58 16287V15912.5H4723.51V16534.9C4757.21 16679.5 4889.03 16820.3 4975.9 16935.6C5042.56 17024.7 5215.56 17070.4 5319.66 17092.9C5365.65 17104.4 5413.37 17107.5 5460.46 17101.8C5487.63 17100 5514.14 17092.6 5538.35 17080.1Z" fill="#B16668"/>
<path d="M2475.97 7037.71C1969.69 8143.13 2493.94 12037.6 2493.94 12037.6C2478.96 12216.6 2273.76 12570.1 2194.37 13359.4C2103.75 14292.6 2335.92 16634.5 2335.92 16634.5C2435.44 16692.3 2547.57 16724.9 2662.57 16729.5C2777.56 16734.1 2891.93 16710.5 2995.73 16660.7C2995.73 16660.7 3621.83 13134 3737.92 12205.3C3839.77 11395.7 4037.49 9616.28 4037.49 9616.28L4426.93 12204.6C4345.52 12465.2 4286.64 12732.3 4250.93 13002.9C4197.76 13548.9 4726.51 16089.3 4726.51 16089.3C4726.51 16089.3 4951.19 16171.7 5379.57 16108.8C5379.57 16108.8 5566.06 12738.6 5615.49 12080.3C5698.62 10976.3 5572.8 7529.76 5369.84 6875.94L2475.97 7037.71Z" fill="#37474F"/>
<path d="M4035.99 9614.04L4200.01 8587.25C4200.01 8587.25 4895.76 8443.46 5211.06 8146.88C5211.06 8146.88 4880.04 8558.04 4387.24 8692.85L4203 9483.72L4367.77 11827.9L4035.99 9614.04Z" fill="#263238"/>
<path d="M3000.22 17062.9V16968.5C3063.13 16995.5 3209.17 17552 3469.05 17788.6C3675.76 17976.6 3957.35 18194.5 4028.5 18404.2C4099.65 18613.9 3636.81 18742.8 3443.59 18709.1C3218.91 18669.4 2830.96 18511.3 2733.6 18365.3C2636.24 18219.3 2590.55 18002.8 2508.92 17895.7C2427.29 17788.6 2247.54 17671 2204.11 17545.2C2180.89 17477.1 2208.6 17327.3 2241.55 17201.5C2274.5 17075.6 2305.21 16958.1 2344.9 16969.3V17044.2C2437.93 17117.3 2553.14 17156.4 2671.44 17155C2768.8 17155 3000.97 17135.6 3000.22 17062.9Z" fill="#263238"/>
<path d="M5376.58 16424.1C5410.28 16424.1 5446.98 16476.5 5521.87 16557.4C5633.95 16670.4 5764.04 16764.1 5906.82 16834.5C6151.72 16957.3 6628.04 17146 6843.74 17243.4C6978.54 17304.1 6972.55 17468.1 6833.25 17558.7C6693.95 17649.3 6357.68 17718.2 5954 17628.3C5733.82 17578.9 5447.73 17376 5266.49 17386.4C5085.24 17396.9 4746.73 17395.4 4612.67 17302.6C4478.61 17209.7 4532.53 17013.5 4569.98 16845C4611.17 16660 4662.85 16372.4 4724.26 16384.4V16448C4799.15 16567.1 5208.82 16615.8 5381.82 16528.2L5376.58 16424.1Z" fill="#263238"/>
<path d="M3368.69 3197.19C2719.37 3242.13 2674.43 3555.18 2511.92 3898.19C2388.34 4158.82 2428.78 4470.37 2523.15 4742.98L2933.56 6042.38C2933.56 6042.38 2723.11 6554.65 2475.97 7037.71C3610.6 7671.31 5027.58 7337.28 5368.34 6875.94C5383.32 6777.83 5293.45 6011.67 5241.02 5511.39C5440.99 5009.6 5494.16 4692.06 5409.53 4360.28C5253.01 3745.41 4645.62 3146.26 4376.76 3167.98L3368.69 3197.19Z" fill="#00A0E6"/>
<path d="M2344.15 599.144L2540.37 915.193C2520.27 929.056 2497.58 938.714 2473.65 943.587C2449.72 948.46 2425.06 948.448 2401.14 943.552C2377.22 938.655 2354.53 928.976 2334.44 915.094C2314.35 901.212 2297.28 883.414 2284.24 862.768C2258.52 819.524 2250.4 768.053 2261.55 718.992C2272.7 669.93 2302.27 627.026 2344.15 599.144Z" fill="#263238"/>
<path d="M4841.84 587.162C4991.63 677.783 5184.85 1063.48 5166.13 1872.33C5149.65 2557.6 4927.97 2723.86 4820.12 2776.29C4712.27 2828.71 4493.59 2795.01 4283.89 2760.56V3173.22C4283.89 3173.22 4572.97 3508.74 4555 3697.47C4537.02 3886.2 4137.84 3930.39 3866.73 3746.15C3691.53 3620.09 3541.2 3462.65 3423.36 3281.82V2285.74C3423.36 2285.74 3281.82 2474.47 3048.9 2320.94C2815.98 2167.41 2809.24 1787.7 2943.3 1651.39C3077.36 1515.09 3365.7 1558.53 3419.62 1750.25C3419.62 1750.25 3752.89 1762.98 4197.01 1518.83C4370.24 1425.25 4518.93 1292.1 4630.98 1130.21C4743.03 968.311 4815.28 782.25 4841.84 587.162Z" fill="#B16668"/>
<path d="M4323.58 1700.08C4324.5 1711.61 4323.1 1723.21 4319.47 1734.2C4315.84 1745.18 4310.06 1755.33 4302.46 1764.05C4294.85 1772.77 4285.58 1779.89 4275.19 1784.98C4264.8 1790.07 4253.5 1793.03 4241.95 1793.69C4219.3 1793.1 4197.72 1783.98 4181.52 1768.16C4165.31 1752.34 4155.67 1730.98 4154.54 1708.36C4153.4 1685.74 4160.85 1663.52 4175.39 1646.16C4189.93 1628.79 4210.49 1617.55 4232.96 1614.7C4244.53 1614.3 4256.06 1616.19 4266.9 1620.28C4277.73 1624.36 4287.64 1630.55 4296.07 1638.49C4304.5 1646.43 4311.27 1655.96 4315.99 1666.53C4320.71 1677.1 4323.29 1688.5 4323.58 1700.08Z" fill="#263238"/>
<path d="M4423.19 2281.25L4623.9 2344.91C4620.72 2358.65 4614.75 2371.59 4606.34 2382.92C4597.94 2394.24 4587.29 2403.72 4575.06 2410.75C4562.83 2417.77 4549.29 2422.21 4535.27 2423.76C4521.25 2425.32 4507.06 2423.97 4493.59 2419.8C4465.91 2410.72 4442.96 2391.04 4429.77 2365.07C4416.57 2339.1 4414.2 2308.96 4423.19 2281.25Z" fill="#9A4A4D"/>
<path d="M5030.57 1435.7L4856.07 1314.38C4863.42 1302.71 4873.06 1292.65 4884.41 1284.82C4895.75 1276.99 4908.57 1271.54 4922.09 1268.81C4935.6 1266.08 4949.53 1266.12 4963.03 1268.93C4976.53 1271.75 4989.31 1277.27 5000.62 1285.17C5024.07 1301.55 5040.28 1326.36 5045.87 1354.41C5051.45 1382.47 5045.97 1411.59 5030.57 1435.7Z" fill="#263238"/>
<path d="M4990.13 1637.91C4991.05 1649.45 4989.65 1661.05 4986.02 1672.04C4982.4 1683.02 4976.61 1693.17 4969.01 1701.89C4961.4 1710.61 4952.13 1717.73 4941.74 1722.82C4931.35 1727.91 4920.05 1730.87 4908.5 1731.53C4885.86 1730.94 4864.27 1721.82 4848.07 1706C4831.86 1690.17 4822.23 1668.82 4821.09 1646.2C4819.95 1623.58 4827.4 1601.36 4841.94 1584C4856.48 1566.63 4877.04 1555.39 4899.51 1552.54C4911.08 1552.14 4922.61 1554.03 4933.45 1558.12C4944.28 1562.2 4954.19 1568.39 4962.62 1576.33C4971.05 1584.27 4977.82 1593.8 4982.54 1604.37C4987.26 1614.94 4989.84 1626.34 4990.13 1637.91Z" fill="#263238"/>
<path d="M4569.23 1588.48L4582.71 2107.49L4856.07 2022.86L4569.23 1588.48Z" fill="#9A4A4D"/>
<path d="M4280.14 2760.56C4059.96 2731.36 3606.1 2601.04 3535.7 2422.05C3564.74 2512.46 3620.98 2591.71 3696.72 2648.97C3832.28 2765.06 4282.39 2896.12 4282.39 2896.12L4280.14 2760.56Z" fill="#9A4A4D"/>
<path opacity="0.1" d="M3658.53 7160.53C3349.97 7085.64 3036.17 6749.37 3177.72 6419.84C3217.79 6327 3287.26 6249.9 3375.43 6200.4C3407.69 6181.9 3444.95 6174.04 3481.93 6177.94C3518.9 6181.84 3553.71 6197.3 3581.39 6222.12C3431.6 6124.76 3177.72 5650.69 3143.27 5477.68L2968.02 4895.76C2951.58 4762.25 2963.32 4626.78 3002.47 4498.08L2546.37 3973.83L2462.49 4032.25C2387.59 4256.93 2443.76 4519.05 2523.15 4747.48L2933.57 6046.87C2933.57 6046.87 2723.12 6554.65 2475.97 7037.71C2845.11 7236.16 3252.48 7353.22 3670.66 7380.99C4088.84 7408.77 4508.12 7346.62 4900.26 7198.73C4487.65 7264.44 4066.33 7251.48 3658.53 7160.53Z" fill="black"/>
<path d="M1442.44 6304.51C1933.74 4296.62 2285.74 3586.63 2674.43 3352.22C2819.21 3268.71 2983.62 3225.28 3150.75 3226.4C3203.82 3293.22 3235.88 3374.27 3242.87 3459.31C3289.48 3863.89 3190.16 4271.81 2962.77 4609.67C2962.77 4609.67 2246.05 6122.52 2131.46 6660.25C2031.1 7130.58 1918.01 7722.23 1924 8128.15C1925.53 8201.3 1953.76 8271.36 2003.39 8325.12C2135.2 8467.42 2135.2 8582.01 2220.58 8739.28C2286.49 8862.11 2359.13 8907.79 2338.91 8935.5C2311.69 8965.05 2274.24 8983.12 2234.18 8986.04C2194.11 8988.96 2154.44 8976.52 2123.22 8951.23C2061.94 8907.27 2007.22 8854.82 1960.7 8795.45C1982.89 8945.85 2026.26 9092.34 2089.52 9230.58C2239.3 9562.36 2201.11 9731.62 1753.25 9613.29C1472.4 9538.39 1296.4 9305.47 1254.46 8630.69C1233.58 8381.56 1231.08 8131.24 1246.97 7881.76C1306.89 7244.41 1349.57 6681.97 1442.44 6304.51Z" fill="#B16668"/>
<path d="M4235.96 6143.49C4370.76 6182.43 4501.83 6165.21 4685.32 6234.86C4823.15 6293.42 4969.13 6330.55 5118.2 6344.95C5279.97 6358.43 5438.74 6187.67 5852.9 5952.51C6246.09 5727.83 6730.65 6190.67 6479.01 6476.76C6390.35 6562.04 6286.44 6629.88 6172.69 6676.73C5984.71 6751.62 5798.23 6791.31 5316.66 6937.35C5235.6 6965.05 5156.94 6999.37 5081.5 7039.96C4988.04 7082.23 4891.69 7117.77 4793.16 7146.31C4568.27 7220.19 4328.13 7234.89 4095.91 7188.99C3952.17 7165.49 3819.68 7096.75 3717.7 6992.77C3631.57 6895.41 3553.68 6710.43 3582.89 6580.11C3590.54 6540.67 3611.41 6505 3642.05 6479.01C3716.95 6419.84 3833.03 6457.29 3917.66 6470.77C4016.23 6491.15 4116.58 6501.69 4217.23 6502.22C4379 6495.48 4492.09 6468.52 4469.62 6444.56C4447.16 6420.59 4352.79 6431.83 4224.72 6369.66C4096.66 6307.5 4017.27 6184.68 4053.97 6118.77C4090.66 6052.87 4101.15 6104.54 4235.96 6143.49Z" fill="#B16668"/>
<path d="M5729.33 6019.16C5729.33 6019.16 5949.51 5982.47 6092.56 6232.61C6235.6 6482.75 6310.5 7805.37 6310.5 7805.37L6160.71 7717.74C6160.71 7717.74 6109.78 6659.5 5982.46 6357.68C5949.64 6280.99 5893.27 6216.72 5821.51 6174.18C5749.75 6131.63 5666.32 6113.02 5583.28 6121.02C5598.9 6094.56 5620.02 6071.77 5645.22 6054.2C5670.42 6036.62 5699.1 6024.67 5729.33 6019.16Z" fill="#263238"/>
<path d="M654.566 9566.1H0V19774C2.77991 19802.7 13.115 19830.2 29.9537 19853.6C46.7923 19877 69.5334 19895.6 95.8631 19907.3C167.527 19943.9 246.833 19963 327.283 19963C407.733 19963 487.039 19943.9 558.703 19907.3C585.033 19895.6 607.774 19877 624.613 19853.6C641.451 19830.2 651.786 19802.7 654.566 19774V9566.1Z" fill="#37474F"/>
<path d="M327.283 9754.83C508.036 9754.83 654.566 9670.33 654.566 9566.1C654.566 9461.87 508.036 9377.37 327.283 9377.37C146.53 9377.37 0 9461.87 0 9566.1C0 9670.33 146.53 9754.83 327.283 9754.83Z" fill="#455A64"/>
<path d="M524.253 10828C2849.68 13034.4 5662.67 14610.9 8885.32 15655.7V15006.3C5664.92 13957.8 2849.68 12385.1 524.253 10179.5V10828Z" fill="#00A0E6"/>
<path opacity="0.7" d="M524.253 10828C2849.68 13034.4 5662.67 14610.9 8885.32 15655.7V15006.3C5664.92 13957.8 2849.68 12385.1 524.253 10179.5V10828Z" fill="white"/>
<path d="M9026.87 14425.9H8373.05V24633.1C8375.55 24662 8385.77 24689.7 8402.63 24713.3C8419.5 24736.8 8442.39 24755.5 8468.92 24767.2C8540.56 24803.4 8619.7 24822.2 8699.96 24822.2C8780.23 24822.2 8859.37 24803.4 8931.01 24767.2C8957.53 24755.5 8980.43 24736.8 8997.29 24713.3C9014.16 24689.7 9024.37 24662 9026.87 24633.1V14425.9Z" fill="#37474F"/>
<path d="M8468.92 14557C8540.56 14593.2 8619.7 14612 8699.96 14612C8780.23 14612 8859.37 14593.2 8931.01 14557C9059.08 14482.1 9059.08 14363.8 8931.01 14289.6C8859.37 14253.4 8780.23 14234.5 8699.96 14234.5C8619.7 14234.5 8540.56 14253.4 8468.92 14289.6C8340.1 14366 8340.1 14482.1 8468.92 14557Z" fill="#455A64"/>
<path d="M8857.61 15627.2C11183 17833.6 13996 19410.1 17218.7 20454.8V19807C13998.3 18758.5 11183 17185.7 8857.61 14979.4V15627.2Z" fill="#00A0E6"/>
<path opacity="0.7" d="M8857.61 15627.2C11183 17833.6 13996 19410.1 17218.7 20454.8V19807C13998.3 18758.5 11183 17185.7 8857.61 14979.4V15627.2Z" fill="white"/>
<path d="M17402.2 19285H16747.6V29492.9C16750.2 29521.8 16760.4 29549.4 16777.3 29573C16794.1 29596.6 16817 29615.2 16843.5 29627C16915.2 29663.2 16994.5 29682.1 17074.9 29682.1C17155.3 29682.1 17234.5 29663.2 17306.3 29627C17332.7 29615.1 17355.5 29596.4 17372.3 29572.9C17389.1 29549.3 17399.4 29521.7 17402.2 29492.9V19285Z" fill="#37474F"/>
<path d="M17072.6 19473.7C17253.4 19473.7 17399.9 19389.2 17399.9 19285C17399.9 19180.8 17253.4 19096.3 17072.6 19096.3C16891.9 19096.3 16745.4 19180.8 16745.4 19285C16745.4 19389.2 16891.9 19473.7 17072.6 19473.7Z" fill="#455A64"/>
</svg>
