<svg width="658" height="347" viewBox="0 0 658 347" fill="none" xmlns="http://www.w3.org/2000/svg">
<g filter="url(#filter0_di_1763_154)">
<rect x="16" y="16" width="614" height="303" rx="17" fill="#4C4C4C"/>
<rect x="18" y="18" width="610" height="299" rx="15" stroke="url(#paint0_linear_1763_154)" stroke-width="4"/>
</g>
<mask id="mask0_1763_154" style="mask-type:alpha" maskUnits="userSpaceOnUse" x="14" y="16" width="619" height="299">
<rect x="16" y="18" width="615" height="295" rx="15" fill="#4C4C4C" stroke="url(#paint1_linear_1763_154)" stroke-width="4"/>
</mask>
<g mask="url(#mask0_1763_154)">
<line x1="20.0488" y1="284.016" x2="625.943" y2="284.016" stroke="#444459"/>
<line x1="20.0488" y1="251.068" x2="625.943" y2="251.068" stroke="#444459"/>
<line x1="20.0488" y1="218.117" x2="625.943" y2="218.117" stroke="#444459"/>
<line x1="20.0488" y1="185.172" x2="625.943" y2="185.172" stroke="#444459"/>
<line x1="20.0488" y1="152.225" x2="625.943" y2="152.225" stroke="#444459"/>
<line x1="20.0488" y1="119.275" x2="625.943" y2="119.275" stroke="#444459"/>
<line x1="20.0488" y1="86.3262" x2="625.943" y2="86.3262" stroke="#444459"/>
<line x1="20.0488" y1="53.3809" x2="625.943" y2="53.3809" stroke="#444459"/>
<line x1="591.784" y1="614" x2="591.784" y2="20.934" stroke="#444459"/>
<line x1="558.122" y1="614" x2="558.122" y2="20.934" stroke="#444459"/>
<line x1="524.463" y1="614" x2="524.463" y2="20.934" stroke="#444459"/>
<line x1="490.801" y1="614" x2="490.801" y2="20.934" stroke="#444459"/>
<line x1="457.139" y1="614" x2="457.139" y2="20.934" stroke="#444459"/>
<line x1="423.48" y1="614" x2="423.48" y2="20.934" stroke="#444459"/>
<line x1="389.819" y1="614" x2="389.819" y2="20.934" stroke="#444459"/>
<line x1="356.157" y1="614" x2="356.157" y2="20.934" stroke="#444459"/>
<line x1="322.498" y1="614" x2="322.498" y2="20.934" stroke="#444459"/>
<line x1="288.836" y1="614" x2="288.836" y2="20.934" stroke="#444459"/>
<line x1="255.175" y1="614" x2="255.175" y2="20.934" stroke="#444459"/>
<line x1="221.516" y1="614" x2="221.516" y2="20.934" stroke="#444459"/>
<line x1="187.854" y1="614" x2="187.855" y2="20.934" stroke="#444459"/>
<line x1="154.192" y1="614" x2="154.192" y2="20.934" stroke="#444459"/>
<line x1="120.533" y1="614" x2="120.533" y2="20.934" stroke="#444459"/>
<line x1="86.8721" y1="614" x2="86.8721" y2="20.934" stroke="#444459"/>
<line x1="53.21" y1="614" x2="53.21" y2="20.934" stroke="#444459"/>
</g>
<defs>
<filter id="filter0_di_1763_154" x="0.200001" y="0.200001" width="657.6" height="346.6" filterUnits="userSpaceOnUse" color-interpolation-filters="sRGB">
<feFlood flood-opacity="0" result="BackgroundImageFix"/>
<feColorMatrix in="SourceAlpha" type="matrix" values="0 0 0 0 0 0 0 0 0 0 0 0 0 0 0 0 0 0 127 0" result="hardAlpha"/>
<feOffset dx="6" dy="6"/>
<feGaussianBlur stdDeviation="10.9"/>
<feComposite in2="hardAlpha" operator="out"/>
<feColorMatrix type="matrix" values="0 0 0 0 0 0 0 0 0 0 0 0 0 0 0 0 0 0 0.25 0"/>
<feBlend mode="normal" in2="BackgroundImageFix" result="effect1_dropShadow_1763_154"/>
<feBlend mode="normal" in="SourceGraphic" in2="effect1_dropShadow_1763_154" result="shape"/>
<feColorMatrix in="SourceAlpha" type="matrix" values="0 0 0 0 0 0 0 0 0 0 0 0 0 0 0 0 0 0 127 0" result="hardAlpha"/>
<feMorphology radius="1" operator="dilate" in="SourceAlpha" result="effect2_innerShadow_1763_154"/>
<feOffset dx="3" dy="5"/>
<feGaussianBlur stdDeviation="4.15"/>
<feComposite in2="hardAlpha" operator="arithmetic" k2="-1" k3="1"/>
<feColorMatrix type="matrix" values="0 0 0 0 0 0 0 0 0 0 0 0 0 0 0 0 0 0 0.25 0"/>
<feBlend mode="normal" in2="shape" result="effect2_innerShadow_1763_154"/>
</filter>
<linearGradient id="paint0_linear_1763_154" x1="323" y1="16" x2="456.055" y2="318.966" gradientUnits="userSpaceOnUse">
<stop stop-color="#EB3349"/>
<stop offset="1" stop-color="#F45C43"/>
</linearGradient>
<linearGradient id="paint1_linear_1763_154" x1="323.5" y1="16" x2="452.896" y2="317.006" gradientUnits="userSpaceOnUse">
<stop stop-color="#FF9F39"/>
<stop offset="1" stop-color="#AE6161"/>
</linearGradient>
</defs>
</svg>
